<svg xmlns="http://www.w3.org/2000/svg" class="css-ze2te4 css-qd6ojx" viewBox="0 0 60 59.999" width="60" height="60"><g transform="translate(-3.042 -3.353) scale(.6705)" class="css-1q1ntdw" fill="#efdde9"><animateTransform attributeName="transform" attributeType="XML" type="scale" values="0.67; 1.5; 0.67" keyTimes="0; 0.5; 1" dur="60s" repeatCount="indefinite"/><animateTransform attributeName="transform" attributeType="XML" type="rotate" from="0 50 50" to="360 50 50" dur="60s" repeatCount="indefinite" calcMode="spline" keySplines="0.4 0 0.2 1; 0.4 0 0.2 1" additive="sum" transform-origin="50% 50%"/><path xmlns="http://www.w3.org/2000/svg" d="m142.076 82.384 1.188 -1.191c16.666 -16.666 16.667 -43.785 0 -60.452s-43.786 -16.667 -60.454 0l-1.19 1.188 -1.188 -1.188c-16.667 -16.667 -43.788 -16.667 -60.455 0s-16.667 43.786 0.002 60.452l1.188 1.191 -1.188 1.188c-16.669 16.667 -16.669 43.785 -0.002 60.455 16.669 16.666 43.79 16.666 60.455 0l1.188 -1.19 1.19 1.19c16.667 16.666 43.786 16.666 60.454 0 16.667 -16.671 16.666 -43.788 0 -60.455l-1.188 -1.188zm-54.004 -56.378c13.764 -13.764 36.162 -13.764 49.925 0 13.764 13.764 13.764 36.164 0.002 49.926l-40.076 40.074c-3.067 3.07 -3.816 6.712 -0.179 10.39l1.369 1.327c7.678 7.678 20.171 7.678 27.848 0s7.678 -20.172 0.002 -27.85l-1.19 -1.19 2.885 -2.884 1.19 1.19c9.272 9.269 9.272 24.353 0 33.62 -9.269 9.269 -24.353 9.269 -33.622 0 0 0 -0.584 -0.49 -1.372 -1.286 -0.724 -0.736 -7.946 -8.072 0.184 -16.205l40.075 -40.076c12.175 -12.173 12.175 -31.979 0 -44.154 -12.173 -12.172 -31.978 -12.172 -44.151 0.002l-1.191 1.188 -2.887 -2.885 1.19 -1.191zm33.625 96.457c-4.775 4.772 -12.546 4.772 -17.323 0l-1.188 -1.19 17.323 -17.323 1.19 1.186c4.774 4.777 4.774 12.546 0 17.326zM25.24 26.006c13.764 -13.764 36.164 -13.764 49.928 0l40.073 40.073 -2.887 2.89 -40.075 -40.076c-12.175 -12.173 -31.978 -12.173 -44.151 0 -12.175 12.173 -12.175 31.979 0 44.153l1.188 1.19 -2.887 2.887 -1.19 -1.188c-13.764 -13.764 -13.764 -36.162 0 -49.928zm77.947 17.489 1.188 -1.19c4.774 -4.774 12.545 -4.774 17.323 0 4.772 4.774 4.772 12.543 0 17.323l-1.19 1.188 -17.323 -17.323zM40.099 96.055l-3.821 3.82c-7.679 7.678 -7.678 20.172 0 27.85 7.676 7.678 20.171 7.678 27.848 0l1.19 -1.19c5.868 -5.864 -1.195 -11.705 -4.592 -15.105l-2.212 -2.23 -10.517 -10.517 2.887 -2.884 13.988 13.987 1.104 1.106c10.284 10.279 3.026 17.728 2.229 18.526l-1.19 1.19c-9.27 9.274 -24.353 9.269 -33.624 0 -9.269 -9.269 -9.269 -24.353 0.002 -33.624l40.079 -40.073 2.885 2.89 -19.955 19.95 -16.299 16.301zm2.632 7.9 17.323 17.317 -1.19 1.191c-4.775 4.772 -12.545 4.775 -17.32 0 -4.774 -4.774 -4.774 -12.546 0 -17.323l40.076 -40.076 -1.19 -1.19 17.32 -17.323 -16.13 53.152 -17.322 -17.317 17.323 -17.323zm21.399 -66.908c-7.678 -7.681 -20.172 -7.678 -27.848 0 -7.678 7.674 -7.679 20.171 0 27.848l1.188 1.19 -2.887 2.885 -1.19 -1.188c-9.27 -9.272 -9.269 -24.353 0 -33.625 9.272 -9.269 24.353 -9.27 33.624 0l40.076 40.076 -2.887 2.887 -40.076 -40.073zm-4.076 6.453 -17.322 17.318 -1.188 -1.188c-4.775 -4.775 -4.775 -12.546 -0.002 -17.323 4.774 -4.774 12.545 -4.774 17.323 0.003l1.19 1.188zm77.945 95.265c-13.763 13.764 -36.16 13.764 -49.925 0l-1.498 -1.339c-0.326 -0.328 -3.085 -3.07 -5.119 -7.306 -1.896 4.004 -4.415 6.749 -5.098 7.455l-1.19 1.19c-13.764 13.764 -36.164 13.764 -49.928 0s-13.764 -36.162 0 -49.93l40.076 -40.073 2.887 2.888 -40.075 40.075c-12.175 12.175 -12.175 31.979 0 44.153 12.173 12.175 31.978 12.175 44.151 0l1.255 -1.256c3.16 -3.281 5.546 -8.344 5.722 -13.559 0 -0.152 0.012 -0.306 0.015 -0.455 0.037 -4.076 -1.297 -8.208 -4.713 -11.625l-6.361 -6.361 -0.611 -0.651 -11.437 -11.436 2.887 -2.888 15.971 15.971 1.339 1.364c2.369 2.371 4.052 4.731 5.208 7.034 1.161 -2.22 2.809 -4.497 5.111 -6.801l0.221 -0.244 40.078 -40.075c7.676 -7.678 7.676 -20.174 -0.002 -27.852 -7.676 -7.678 -20.171 -7.678 -27.848 0l-1.19 1.191 -2.885 -2.887 1.188 -1.191c9.269 -9.269 24.353 -9.269 33.622 0 9.272 9.272 9.272 24.353 0 33.622l-40.079 40.076 -1.265 1.27c-8.021 8.021 -4.87 19.506 0.996 25.369l1.46 1.382c12.173 12.175 31.978 12.175 44.151 0 12.175 -12.173 12.175 -31.978 0 -44.153l-1.19 -1.19 2.887 -2.888 1.19 1.191c13.764 13.764 13.764 36.16 0 49.926z"/></g></svg>