<svg xmlns="http://www.w3.org/2000/svg" viewBox="0 0 369.6551724137931 60.34465877396095" preserveAspectRatio="xMidYMid meet" class="css-8aabad" id="chehdfef"><defs id="SvgjsDefs1913"></defs><g id="SvgjsG1914" featurekey="symbolFeature-0" transform="matrix(0.6705017788352912,0,0,0.6705017788352912,-3.0421501377529854,-3.353179667077989)" fill="#111"><path xmlns="http://www.w3.org/2000/svg" d="M86.229,50.001l0.721-0.723c10.115-10.115,10.116-26.574,0-36.69s-26.575-10.116-36.691,0l-0.722,0.721l-0.721-0.721  C38.7,2.472,22.24,2.472,12.124,12.588C2.008,22.704,2.008,39.163,12.125,49.278l0.721,0.723l-0.721,0.721  C2.008,60.838,2.008,77.296,12.124,87.414c10.117,10.115,26.577,10.115,36.692,0l0.721-0.722l0.722,0.722  c10.116,10.115,26.575,10.115,36.691,0c10.116-10.118,10.115-26.576,0-36.692L86.229,50.001z M53.453,15.783  c8.354-8.354,21.947-8.354,30.3,0c8.354,8.354,8.354,21.948,0.001,30.301L59.431,70.407c-1.862,1.863-2.316,4.073-0.109,6.306  l0.831,0.806c4.66,4.66,12.242,4.66,16.902,0s4.66-12.243,0.001-16.903l-0.722-0.722l1.751-1.75l0.722,0.722  c5.627,5.625,5.627,14.78,0,20.405c-5.625,5.625-14.781,5.625-20.406,0c0,0-0.354-0.298-0.833-0.78  c-0.44-0.447-4.823-4.899,0.112-9.835l24.322-24.323c7.389-7.388,7.389-19.409,0-26.798c-7.388-7.387-19.408-7.387-26.796,0.001  l-0.723,0.721l-1.752-1.751L53.453,15.783z M73.86,74.325c-2.899,2.897-7.615,2.897-10.514,0l-0.721-0.722l10.513-10.513l0.722,0.72  C76.758,66.71,76.758,71.425,73.86,74.325z M15.319,15.783c8.354-8.354,21.948-8.354,30.302,0l24.321,24.321l-1.752,1.754  L43.868,17.535c-7.389-7.388-19.408-7.388-26.796,0c-7.389,7.388-7.389,19.409,0,26.797l0.721,0.722l-1.752,1.752l-0.722-0.721  C6.965,37.731,6.965,24.138,15.319,15.783z M62.626,26.398l0.721-0.722c2.898-2.898,7.614-2.898,10.514,0  c2.897,2.898,2.897,7.613,0,10.514l-0.722,0.721L62.626,26.398z M24.337,58.297l-2.319,2.318c-4.661,4.66-4.66,12.243,0,16.903  c4.659,4.66,12.242,4.66,16.902,0l0.722-0.722c3.561-3.559-0.725-7.104-2.787-9.167l-1.343-1.354l-6.383-6.383l1.752-1.75  l8.49,8.489l0.67,0.672c6.242,6.239,1.837,10.76,1.353,11.244l-0.722,0.722c-5.626,5.628-14.78,5.625-20.407,0  c-5.625-5.625-5.625-14.78,0.001-20.407L44.59,34.54l1.751,1.754L34.23,48.403L24.337,58.297z M25.934,63.091l10.513,10.51  l-0.722,0.723c-2.899,2.897-7.614,2.899-10.512,0c-2.898-2.898-2.898-7.615,0-10.513L25.934,63.091z M49.536,39.488l10.512,10.513  L49.536,60.512L39.023,50.001L49.536,39.488z M38.921,22.483c-4.66-4.662-12.243-4.66-16.902,0c-4.66,4.658-4.661,12.242,0,16.902  l0.721,0.722l-1.752,1.751l-0.722-0.721c-5.626-5.627-5.625-14.781,0-20.408c5.627-5.625,14.781-5.626,20.407,0l24.323,24.323  l-1.752,1.752L38.921,22.483z M36.447,26.399L25.934,36.911l-0.721-0.721c-2.899-2.899-2.899-7.615-0.001-10.514  c2.898-2.898,7.614-2.898,10.513,0.002L36.447,26.399z M83.753,84.218c-8.353,8.354-21.946,8.354-30.3,0l-0.909-0.813  c-0.198-0.199-1.873-1.863-3.107-4.434c-1.151,2.43-2.679,4.096-3.094,4.525l-0.722,0.722c-8.354,8.354-21.948,8.354-30.302,0  c-8.354-8.354-8.354-21.947,0-30.303l24.323-24.321l1.752,1.753L17.072,55.669c-7.389,7.389-7.389,19.409,0,26.797  c7.388,7.389,19.408,7.389,26.796,0l0.761-0.762c1.918-1.991,3.366-5.064,3.473-8.229c0-0.093,0.007-0.186,0.009-0.277  c0.022-2.474-0.788-4.981-2.86-7.055c-1.284-1.284-3.86-3.86-3.86-3.86l-0.371-0.395l-6.942-6.941l1.752-1.753l9.693,9.693  l0.813,0.828c1.438,1.439,2.459,2.871,3.161,4.269c0.705-1.348,1.705-2.73,3.102-4.128l0.134-0.148l24.324-24.322  c4.659-4.66,4.659-12.244-0.001-16.904c-4.659-4.66-12.242-4.66-16.902,0l-0.722,0.723l-1.751-1.752l0.721-0.723  c5.625-5.625,14.781-5.625,20.406,0c5.627,5.627,5.627,14.781,0,20.406L54.482,65.46l-0.767,0.77  c-4.868,4.868-2.956,11.839,0.604,15.397l0.886,0.839c7.388,7.389,19.408,7.389,26.796,0c7.389-7.388,7.389-19.408,0-26.797  l-0.722-0.722l1.752-1.753l0.722,0.723C92.107,62.271,92.107,75.863,83.753,84.218z"></path></g><g id="SvgjsG1915" featurekey="nameFeature-0" transform="matrix(0.8689611947110223,0,0,0.8689611947110223,79.65241378183305,5.580463002857483)" fill="#111"><path d="M41.2 11.52 l0 1.04 c-0.84 0 -1.92 0.28 -2.12 1.04 l0.04 -0.04 l-7.52 26.64 l-4.68 0 l-6.24 -17.32 l-5.76 17.32 l-5 0 l-7.52 -26.6 l0 0.08 c-0.12 -0.8 -1.12 -1.12 -2 -1.12 l0 -1.04 l7.48 0 l0 1.04 c-0.68 0 -0.96 0.2 -1 0.64 l5.92 21.68 l6.56 -17.92 l3.2 0 l6.88 17.92 l5.48 -21.2 c0.2 -0.8 -0.04 -1.12 -0.92 -1.12 l0 -1.04 l7.2 0 z M39.08 13.600000000000001 l0 0.08 l0 -0.08 z M74.005 38.36 c0.28 0.56 1.04 0.8 1.8 0.8 l0 1.04 l-7.72 0 l0 -1.04 c0.8 0 1.08 -0.28 0.96 -0.92 l-2.96 -8.08 l-11.88 0 l-3.12 8.2 c-0.08 0.56 0.2 0.8 0.96 0.8 l0 1.04 l-6.4 0 l0 -1.04 c0.72 0 1.48 -0.2 1.8 -0.72 l0.12 -0.32 l0 -0.08 l0 0.04 l10 -25.28 l6 -1.96 l10.32 27.28 l0 -0.08 l0 0.08 z M54.605000000000004 28.240000000000002 l10.96 0 l-5.28 -14.36 z M98.92999999999999 34.68 l1.36 0 l0 5.52 l-19.24 0 l0 -1.04 c0.84 0 1.68 -0.32 1.72 -1.12 l0 -24.28 c0.04 -0.8 -0.8 -1.12 -1.72 -1.12 l0 -1.04 l7.72 0 l0 1.04 c-0.88 0 -1.64 0.28 -1.72 0.96 l0.04 23.8 l8.92 0 c2.04 0 2.88 -1.92 2.92 -2.72 z M87.05 13.64 l0 0.12 l0 -0.12 z M124.01499999999999 34.68 l1.36 0 l0 5.52 l-19.24 0 l0 -1.04 c0.84 0 1.68 -0.32 1.72 -1.12 l0 -24.28 c0.04 -0.8 -0.8 -1.12 -1.72 -1.12 l0 -1.04 l7.72 0 l0 1.04 c-0.88 0 -1.64 0.28 -1.72 0.96 l0.04 23.8 l8.92 0 c2.04 0 2.88 -1.92 2.92 -2.72 z M112.13499999999999 13.64 l0 0.12 l0 -0.12 z M149.57999999999998 34.8 l1.36 0 l0 5.4 l-19.92 0 l0 -1.04 c0.92 0 1.76 -0.32 1.72 -1.12 l0 -24.28 c-0.04 -0.8 -0.88 -1.12 -1.72 -1.12 l0 -1.04 l19.84 0 l0 5.48 l-1.36 0 c-0.04 -0.8 -0.88 -2.72 -2.92 -2.72 l-9.52 0 l0 10.16 l8.48 0 c1.28 -0.12 1.84 -0.52 1.88 -1.48 l0.96 0 l0 5.32 l-0.96 0 c-0.04 -0.96 -0.6 -1.36 -1.88 -1.48 l-8.52 0 l0 10.64 l9.64 0 c2.04 0 2.88 -1.92 2.92 -2.72 z M156.585 11.64 l21.64 0 l0 5.48 l-1.36 0 c-0.08 -0.8 -0.92 -2.72 -2.92 -2.72 l-4.24 0 l0 23.64 c-0.04 0.8 0.8 1.12 1.72 1.12 l0 1.04 l-8.16 0 l0 -1.04 c0.92 0 1.76 -0.32 1.72 -1.12 l0 -23.64 l-4.12 0 c-2 0 -2.84 1.92 -2.92 2.72 l-1.36 0 l0 -5.48 z M201.75 34.68 l1.36 0 l0 5.52 l-19.24 0 l0 -1.04 c0.84 0 1.68 -0.32 1.72 -1.12 l0 -24.28 c0.04 -0.8 -0.8 -1.12 -1.72 -1.12 l0 -1.04 l7.72 0 l0 1.04 c-0.88 0 -1.64 0.28 -1.72 0.96 l0.04 23.8 l8.92 0 c2.04 0 2.88 -1.92 2.92 -2.72 z M189.87 13.64 l0 0.12 l0 -0.12 z M216.63500000000002 12.68 c-0.88 0 -1.72 0.32 -1.72 1.12 l0 24.24 c0 0.8 0.84 1.12 1.72 1.12 l0 1.04 l-7.88 0 l0 -1.04 c0.88 0 1.72 -0.32 1.72 -1.12 l0 -24.24 c0 -0.8 -0.84 -1.12 -1.72 -1.12 l0 -1.04 l7.88 0 l0 1.04 z M241.36 40.76 c1.2 3.44 4.24 4.12 7.36 3.36 l0.08 1.52 c-4.2 1.6 -10 1.4 -11.44 -4.64 c-7.48 -0.68 -12.68 -7.2 -12.68 -15.12 c0 -7.96 5.8 -14.76 13.96 -14.76 c8.12 0 13.92 6.8 13.92 14.76 c0 7.4 -4.52 13.56 -11.2 14.88 z M230.20000000000002 25.880000000000003 c0 6.8 3.16 12.96 8.6 12.96 s8.6 -6.16 8.6 -12.96 c0 -6.36 -3.16 -12.52 -8.6 -12.52 s-8.6 6.16 -8.6 12.52 z M285.125 11.600000000000001 l0 1.04 c-0.92 0 -1.76 0.32 -1.72 1.12 l0 16.32 c0 4.4 -2.08 10.68 -11.04 10.68 c-9.28 0 -11.64 -6.28 -11.64 -10 l0 -17 c0.04 -0.8 -0.8 -1.12 -1.72 -1.12 l0 -1.04 l8.24 0 l0 1.04 c-0.92 0 -1.76 0.32 -1.72 1.12 l0 16.64 c0 3.52 1.28 7.56 6.84 7.56 s6.4 -4.04 6.4 -7.36 l0 -16.84 c0.04 -0.8 -0.8 -1.12 -1.72 -1.12 l0 -1.04 l8.08 0 z M299.45 12.68 c-0.88 0 -1.72 0.32 -1.72 1.12 l0 24.24 c0 0.8 0.84 1.12 1.72 1.12 l0 1.04 l-7.88 0 l0 -1.04 c0.88 0 1.72 -0.32 1.72 -1.12 l0 -24.24 c0 -0.8 -0.84 -1.12 -1.72 -1.12 l0 -1.04 l7.88 0 l0 1.04 z M331.77500000000003 17.72 c1.16 2.32 1.96 4.96 1.96 8.16 s-0.84 6.4 -2.2 8.56 c-1.92 3.08 -7.56 5.76 -11.68 5.76 l-12.36 0 l0 -1.04 c0.92 0 1.76 -0.32 1.72 -1.12 l0 -24.2 c0 -0.8 -0.84 -1.12 -1.72 -1.12 l0 -1.04 l12.88 0 c5.32 0 9.8 2.8 11.4 6.04 z M318.89500000000004 37.52 c5.84 0 10 -4.28 10 -11.92 s-5.56 -11.4 -10.08 -11.36 l-5.8 0.04 l0 23.32 c2.04 -0.04 3.36 -0.08 5.88 -0.08 z"></path></g></svg>