<svg preserveAspectRatio="none" width="1734" height="675" viewBox="0 0 1734 675" fill="none" xmlns="http://www.w3.org/2000/svg">
<path d="M90.4004 60.1998H0.400391V11.0998H238.4V60.1998H148.4V213H90.4004V60.1998ZM395.2 11.0998L500.6 213H438.6L418.8 173H297.1L277.3 213H215.3L321 11.0998H395.2ZM397.9 131L357.8 49.9998L317.8 131H397.9ZM750.7 45.7998C757.3 57.0998 760.6 70.4998 760.6 86.0998C760.6 101.5 757.3 114.9 750.7 126.1C744.3 137.4 735 146 722.8 152C710.6 158 696.3 161 679.9 161H583.5V213H525.4V11.0998H679.9C696.4 11.0998 710.7 14.0998 722.8 20.0998C735 25.9998 744.3 34.4998 750.7 45.7998ZM700.2 86.0998C700.2 76.4998 697.4 69.7998 691.7 66.0998C686.2 62.1998 677.8 60.1998 666.3 60.1998H583.4V112.1H666.3C677.8 112.1 686.2 110.2 691.7 106.5C697.4 102.5 700.2 95.6998 700.2 86.0998ZM790.6 213H848.7V11.0998H790.6V213ZM1140.4 56.4998C1151.9 72.4998 1157.6 90.9998 1157.6 112.1C1157.6 133.3 1151.9 152.1 1140.4 168.2C1128.9 184.2 1112.7 196.6 1091.6 205.4C1070.7 214.2 1046.2 218.7 1018 218.7C990.2 218.7 965.7 214.3 944.7 205.4C923.8 196.6 907.7 184.2 896.2 168.2C884.7 152 879 133.3 879 112.1C879 90.8998 884.7 72.2998 896.2 56.4998C907.7 40.4998 923.8 28.1998 944.7 19.5998C965.8 10.7998 990.3 6.2998 1018.3 6.2998C1046.3 6.2998 1070.8 10.6998 1091.6 19.5998C1112.6 28.1998 1128.9 40.4998 1140.4 56.4998ZM1096.9 112.1C1096.9 100.8 1093.7 90.8998 1087.3 82.1998C1080.9 73.5998 1071.8 66.8998 1059.9 62.1998C1048.1 57.4998 1034.1 55.1998 1018.2 55.1998C1002.3 55.1998 988.2 57.4998 976.2 62.1998C964.4 66.8998 955.2 73.5998 948.8 82.1998C942.4 90.7998 939.2 100.8 939.2 112.1C939.2 123.6 942.4 133.6 948.8 142.3C955.4 150.9 964.6 157.7 976.4 162.6C988.2 167.3 1002.2 169.7 1018.1 169.7C1033.9 169.7 1047.7 167.3 1059.6 162.6C1071.6 157.7 1080.8 150.9 1087.2 142.3C1093.7 133.6 1096.9 123.5 1096.9 112.1ZM1248.3 205.4C1268.4 214.2 1291.7 218.7 1318.2 218.7C1342.1 218.7 1363.6 215.1 1382.8 208C1402.2 200.9 1417.5 190.8 1428.8 177.8C1440.3 164.8 1446.8 150 1448.5 133.2H1387C1385.7 139.8 1382 145.8 1376 151.2C1370 156.7 1362 161.1 1352 164.5C1342 167.9 1330.8 169.6 1318.2 169.6C1303.5 169.6 1290.7 167.2 1279.6 162.3C1268.7 157.4 1260.2 150.6 1254.2 142C1248.2 133.4 1245.2 123.4 1245.2 112.1C1245.2 101 1248.2 91.0998 1254.2 82.4998C1260.2 73.8998 1268.7 67.1998 1279.6 62.4998C1290.7 57.5998 1303.6 55.1998 1318.2 55.1998C1330.6 55.1998 1341.8 56.8998 1351.8 60.2998C1361.9 63.6998 1370 68.0998 1376 73.5998C1382 79.0998 1385.7 84.9998 1387 91.3998H1448.5C1446.8 74.8998 1440.2 60.1998 1428.8 47.3998C1417.3 34.3998 1402 24.3998 1382.8 17.1998C1363.6 10.0998 1342.1 6.4998 1318.2 6.4998C1291.7 6.4998 1268.4 10.8998 1248.3 19.7998C1228.2 28.3998 1212.6 40.7998 1201.5 56.6998C1190.4 72.6998 1184.9 91.1998 1184.9 112.3C1184.9 133.5 1190.5 152.3 1201.5 168.4C1212.6 184.2 1228.2 196.6 1248.3 205.4ZM1448.2 213L1553.9 11.0998H1628.1L1733.6 213H1671.6L1651.8 173H1530L1510.2 213H1448.2ZM1550.7 131H1630.8L1590.7 49.9998L1550.7 131ZM90.4004 439H148.5V286.2H238.5V237.1H0.400391V286.2H90.4004V439ZM395.2 237.1L500.6 439H438.6L418.8 399H297.1L277.3 439H215.3L321 237.1H395.2ZM397.9 357L357.8 276L317.8 357H397.9ZM750.7 271.8C757.3 283.1 760.6 296.5 760.6 312.1C760.6 327.5 757.3 340.9 750.7 352.1C744.3 363.4 735 372 722.8 378C710.6 384 696.3 387 679.9 387H583.5V439H525.4V237.1H679.9C696.4 237.1 710.7 240.1 722.8 246.1C735 252 744.3 260.5 750.7 271.8ZM700.2 312.1C700.2 302.5 697.4 295.8 691.7 292.1C686.2 288.2 677.8 286.2 666.3 286.2H583.4V338.1H666.3C677.8 338.1 686.2 336.2 691.7 332.5C697.4 328.5 700.2 321.7 700.2 312.1ZM790.6 439H848.7V237.1H790.6V439ZM1140.4 282.5C1151.9 298.5 1157.6 317 1157.6 338.1C1157.6 359.3 1151.9 378 1140.4 394.2C1128.9 410.2 1112.7 422.6 1091.6 431.4C1070.7 440.2 1046.2 444.7 1018 444.7C990.2 444.7 965.7 440.3 944.7 431.4C923.8 422.6 907.7 410.2 896.2 394.2C884.7 378 879 359.3 879 338.1C879 316.9 884.7 298.3 896.2 282.5C907.7 266.5 923.8 254.2 944.7 245.6C965.8 236.8 990.3 232.3 1018.3 232.3C1046.3 232.3 1070.8 236.7 1091.6 245.6C1112.6 254.2 1128.9 266.5 1140.4 282.5ZM1096.9 338.1C1096.9 326.8 1093.7 316.9 1087.3 308.2C1080.9 299.6 1071.8 292.9 1059.9 288.2C1048.1 283.5 1034.1 281.1 1018.2 281.1C1002.3 281.1 988.2 283.5 976.2 288.2C964.4 292.9 955.2 299.6 948.8 308.2C942.4 316.8 939.2 326.8 939.2 338.1C939.2 349.6 942.4 359.6 948.8 368.3C955.4 376.9 964.6 383.7 976.4 388.6C988.2 393.3 1002.2 395.6 1018.1 395.6C1033.9 395.6 1047.7 393.3 1059.6 388.6C1071.6 383.7 1080.8 376.9 1087.2 368.3C1093.7 359.6 1096.9 349.5 1096.9 338.1ZM1248.3 431.4C1268.4 440.2 1291.7 444.7 1318.2 444.7C1342.1 444.7 1363.6 441.1 1382.8 434C1402.2 426.9 1417.5 416.8 1428.8 403.8C1440.3 390.8 1446.8 376 1448.5 359.2H1387C1385.7 365.8 1382 371.8 1376 377.2C1370 382.7 1362 387.1 1352 390.5C1342 393.9 1330.8 395.6 1318.2 395.6C1303.5 395.6 1290.7 393.2 1279.6 388.3C1268.7 383.4 1260.2 376.6 1254.2 368C1248.2 359.4 1245.2 349.4 1245.2 338.1C1245.2 327 1248.2 317.1 1254.2 308.5C1260.2 299.9 1268.7 293.2 1279.6 288.5C1290.7 283.6 1303.6 281.2 1318.2 281.2C1330.6 281.2 1341.8 282.9 1351.8 286.3C1361.9 289.7 1370 294.1 1376 299.6C1382 305.1 1385.7 311 1387 317.4H1448.5C1446.8 300.9 1440.2 286.2 1428.8 273.4C1417.3 260.4 1402 250.4 1382.8 243.2C1363.6 236.1 1342.1 232.5 1318.2 232.5C1291.7 232.5 1268.4 236.9 1248.3 245.8C1228.2 254.4 1212.6 266.8 1201.5 282.7C1190.4 298.7 1184.9 317.2 1184.9 338.3C1184.9 359.5 1190.5 378.2 1201.5 394.4C1212.6 410.2 1228.2 422.6 1248.3 431.4ZM1628.1 237.1L1733.6 439H1671.6L1651.8 399H1530L1510.2 439H1448.2L1554 237.1H1628.1ZM1630.9 357L1590.8 276L1550.8 357H1630.9ZM238.5 463.1H0.400391V512.2H90.4004V665H148.5V512.2H238.5V463.1ZM395.2 463.1L500.6 665H438.6L418.8 625H297.1L277.3 665H215.3L321 463.1H395.2ZM397.9 583L357.8 502L317.8 583H397.9ZM750.7 497.8C757.3 509.1 760.6 522.5 760.6 538.1C760.6 553.5 757.3 566.9 750.7 578.1C744.3 589.4 735 598 722.8 604C710.6 610 696.3 613 679.9 613H583.5V665H525.4V463.1H679.9C696.4 463.1 710.7 466.1 722.8 472.1C735 478 744.3 486.5 750.7 497.8ZM700.2 538.1C700.2 528.5 697.4 521.8 691.7 518.1C686.2 514.2 677.8 512.2 666.3 512.2H583.4V564.1H666.3C677.8 564.1 686.2 562.2 691.7 558.5C697.4 554.5 700.2 547.7 700.2 538.1ZM790.6 665H848.7V463.1H790.6V665ZM1140.4 508.5C1151.9 524.5 1157.6 543 1157.6 564.1C1157.6 585.3 1151.9 604.1 1140.4 620.2C1128.9 636.2 1112.7 648.6 1091.6 657.4C1070.7 666.2 1046.2 670.7 1018 670.7C990.2 670.7 965.7 666.3 944.7 657.4C923.8 648.6 907.7 636.2 896.2 620.2C884.7 604 879 585.3 879 564.1C879 542.9 884.7 524.3 896.2 508.5C907.7 492.5 923.8 480.2 944.7 471.6C965.8 462.8 990.3 458.3 1018.3 458.3C1046.3 458.3 1070.8 462.7 1091.6 471.6C1112.6 480.2 1128.9 492.5 1140.4 508.5ZM1096.9 564.1C1096.9 552.8 1093.7 542.9 1087.3 534.2C1080.9 525.6 1071.8 518.9 1059.9 514.2C1048 509.5 1034.1 507.1 1018.2 507.1C1002.3 507.1 988.2 509.5 976.2 514.2C964.4 518.9 955.2 525.6 948.8 534.2C942.4 542.8 939.2 552.8 939.2 564.1C939.2 575.6 942.4 585.6 948.8 594.3C955.4 602.9 964.6 609.7 976.4 614.6C988.2 619.3 1002.2 621.7 1018.1 621.7C1033.9 621.7 1047.7 619.3 1059.6 614.6C1071.6 609.7 1080.8 602.9 1087.2 594.3C1093.7 585.6 1096.9 575.5 1096.9 564.1ZM1387.1 585.2C1385.8 591.8 1382.1 597.8 1376.1 603.2C1370.1 608.7 1362.1 613.1 1352.1 616.5C1342.1 619.9 1330.9 621.6 1318.3 621.6C1303.6 621.6 1290.8 619.2 1279.7 614.3C1268.8 609.4 1260.3 602.6 1254.3 594C1248.3 585.4 1245.3 575.4 1245.3 564.1C1245.3 553 1248.3 543.1 1254.3 534.5C1260.3 525.9 1268.8 519.2 1279.7 514.5C1290.8 509.6 1303.7 507.2 1318.3 507.2C1330.7 507.2 1341.9 508.9 1351.9 512.3C1362 515.7 1370.1 520.1 1376.1 525.6C1382.1 531.1 1385.8 537 1387.1 543.4H1448.6C1446.9 526.9 1440.3 512.2 1428.9 499.4C1417.4 486.4 1402.1 476.4 1382.9 469.2C1363.7 462.1 1342.2 458.5 1318.3 458.5C1291.8 458.5 1268.5 462.9 1248.4 471.8C1228.3 480.4 1212.7 492.8 1201.6 508.7C1190.5 524.7 1185 543.2 1185 564.3C1185 585.5 1190.6 604.3 1201.6 620.4C1212.7 636.4 1228.3 648.8 1248.4 657.6C1268.5 666.4 1291.8 670.9 1318.3 670.9C1342.2 670.9 1363.7 667.3 1382.9 660.2C1402.3 653.1 1417.6 643 1428.9 630C1440.4 617 1446.9 602.2 1448.6 585.4H1387.1V585.2ZM1628.1 463.1L1733.6 665H1671.6L1651.8 625H1530L1510.2 665H1448.2L1554 463.1H1628.1ZM1630.9 583L1590.8 502L1550.8 583H1630.9Z" fill="#FFCBF4"/>
</svg>
